<?xml version="1.0" encoding="UTF-8"?>
<svg xmlns="http://www.w3.org/2000/svg" xmlns:xlink="http://www.w3.org/1999/xlink" width="24px" height="24px" viewBox="0 0 24 24" version="1.1">
<g id="surface1">
<path style="fill-rule:evenodd;fill:rgb(49.411765%,85.09804%,34.117648%);fill-opacity:1;stroke-width:1.2;stroke-linecap:butt;stroke-linejoin:miter;stroke:rgb(49.411765%,85.09804%,34.117648%);stroke-opacity:1;stroke-miterlimit:4;" d="M 3.25 6 C 3.25 3.375 5.375 1.25 8 1.25 L 16 1.25 C 18.625 1.25 20.75 3.375 20.75 6 L 20.75 20.464844 C 20.75 21.726562 19.726562 22.75 18.464844 22.75 C 18.015625 22.75 17.574219 22.617188 17.195312 22.367188 L 12.695312 19.363281 C 12.273438 19.082031 11.726562 19.082031 11.304688 19.363281 L 6.804688 22.367188 C 6.425781 22.617188 5.988281 22.75 5.535156 22.75 C 4.273438 22.75 3.25 21.726562 3.25 20.464844 Z M 8 2.75 C 6.203125 2.75 4.75 4.203125 4.75 6 L 4.75 20.464844 C 4.75 20.898438 5.101562 21.25 5.535156 21.25 C 5.691406 21.25 5.839844 21.203125 5.972656 21.117188 L 10.472656 18.117188 C 11.398438 17.5 12.601562 17.5 13.527344 18.117188 L 18.03125 21.117188 C 18.160156 21.203125 18.308594 21.25 18.464844 21.25 C 18.898438 21.25 19.25 20.898438 19.25 20.464844 L 19.25 6 C 19.25 4.203125 17.792969 2.75 16 2.75 Z M 8 2.75 "/>
<path style="fill-rule:evenodd;fill:rgb(49.411765%,85.09804%,34.117648%);fill-opacity:1;stroke-width:1.2;stroke-linecap:butt;stroke-linejoin:miter;stroke:rgb(49.411765%,85.09804%,34.117648%);stroke-opacity:1;stroke-miterlimit:4;" d="M 8.25 7.5 C 8.25 7.085938 8.585938 6.75 9 6.75 L 15 6.75 C 15.414062 6.75 15.75 7.085938 15.75 7.5 C 15.75 7.914062 15.414062 8.25 15 8.25 L 9 8.25 C 8.585938 8.25 8.25 7.914062 8.25 7.5 Z M 8.25 7.5 "/>
</g>
</svg>
