<?xml version="1.0" encoding="UTF-8"?>
<svg xmlns="http://www.w3.org/2000/svg" xmlns:xlink="http://www.w3.org/1999/xlink" width="24px" height="24px" viewBox="0 0 24 24" version="1.1">
<g id="surface1">
<path style="fill:none;stroke-width:2;stroke-linecap:round;stroke-linejoin:round;stroke:rgb(49.411765%,85.09804%,34.117648%);stroke-opacity:1;stroke-miterlimit:4;" d="M 11 4 L 6.800781 4 C 5.121094 4 4.28125 4 3.636719 4.328125 C 3.074219 4.613281 2.613281 5.074219 2.328125 5.636719 C 2 6.28125 2 7.121094 2 8.800781 L 2 17.199219 C 2 18.878906 2 19.71875 2.328125 20.363281 C 2.613281 20.925781 3.074219 21.386719 3.636719 21.671875 C 4.28125 22 5.121094 22 6.800781 22 L 15.199219 22 C 16.878906 22 17.71875 22 18.363281 21.671875 C 18.925781 21.386719 19.386719 20.925781 19.671875 20.363281 C 20 19.71875 20 18.878906 20 17.199219 L 20 13 M 8 16 L 9.675781 16 C 10.164062 16 10.410156 16 10.636719 15.945312 C 10.84375 15.894531 11.039062 15.816406 11.214844 15.707031 C 11.417969 15.582031 11.589844 15.410156 11.9375 15.0625 L 21.5 5.5 C 22.328125 4.671875 22.328125 3.328125 21.5 2.5 C 20.671875 1.671875 19.328125 1.671875 18.5 2.5 L 8.9375 12.0625 C 8.589844 12.410156 8.417969 12.582031 8.292969 12.785156 C 8.183594 12.960938 8.105469 13.15625 8.054688 13.363281 C 8 13.59375 8 13.835938 8 14.324219 Z M 8 16 "/>
</g>
</svg>
