<?xml version="1.0" encoding="UTF-8"?>
<svg xmlns="http://www.w3.org/2000/svg" xmlns:xlink="http://www.w3.org/1999/xlink" width="24px" height="24px" viewBox="0 0 24 24" version="1.1">
<g id="surface1">
<path style=" stroke:none;fill-rule:nonzero;fill:rgb(49.411765%,85.09804%,34.117648%);fill-opacity:1;" d="M 16.191406 2 L 7.808594 2 C 4.171875 2 2 4.171875 2 7.808594 L 2 16.179688 C 2 19.828125 4.171875 22 7.808594 22 L 16.179688 22 C 19.820312 22 21.988281 19.828125 21.988281 16.191406 L 21.988281 7.808594 C 22 4.171875 19.828125 2 16.191406 2 Z M 18 12.75 L 12.75 12.75 L 12.75 18 C 12.75 18.410156 12.410156 18.75 12 18.75 C 11.589844 18.75 11.25 18.410156 11.25 18 L 11.25 12.75 L 6 12.75 C 5.589844 12.75 5.25 12.410156 5.25 12 C 5.25 11.589844 5.589844 11.25 6 11.25 L 11.25 11.25 L 11.25 6 C 11.25 5.589844 11.589844 5.25 12 5.25 C 12.410156 5.25 12.75 5.589844 12.75 6 L 12.75 11.25 L 18 11.25 C 18.410156 11.25 18.75 11.589844 18.75 12 C 18.75 12.410156 18.410156 12.75 18 12.75 Z M 18 12.75 "/>
</g>
</svg>
