<?xml version="1.0" encoding="UTF-8"?>
<svg xmlns="http://www.w3.org/2000/svg" xmlns:xlink="http://www.w3.org/1999/xlink" width="24px" height="24px" viewBox="0 0 24 24" version="1.1">
<g id="surface1">
<path style=" stroke:none;fill-rule:evenodd;fill:rgb(49.411765%,85.09804%,34.117648%);fill-opacity:1;" d="M 14.46875 2.164062 C 13.054688 0.925781 10.945312 0.925781 9.53125 2.164062 L 2.871094 7.988281 C 1.839844 8.890625 1.25 10.191406 1.25 11.5625 L 1.25 20 C 1.25 22.070312 2.929688 23.75 5 23.75 L 19 23.75 C 21.070312 23.75 22.75 22.070312 22.75 20 L 22.75 11.5625 C 22.75 10.191406 22.160156 8.890625 21.128906 7.988281 Z M 8.160156 14.824219 C 7.984375 14.449219 7.535156 14.292969 7.164062 14.46875 C 6.789062 14.648438 6.628906 15.09375 6.808594 15.46875 C 7.273438 16.449219 8.011719 17.28125 8.929688 17.863281 C 9.847656 18.441406 10.914062 18.75 12.003906 18.75 C 13.089844 18.75 14.15625 18.441406 15.074219 17.859375 C 15.992188 17.277344 16.730469 16.449219 17.195312 15.464844 C 17.371094 15.089844 17.214844 14.644531 16.839844 14.464844 C 16.464844 14.289062 16.015625 14.449219 15.839844 14.820312 C 15.496094 15.546875 14.953125 16.160156 14.273438 16.589844 C 13.59375 17.019531 12.804688 17.25 12 17.25 C 11.199219 17.25 10.410156 17.023438 9.730469 16.59375 C 9.050781 16.164062 8.507812 15.550781 8.160156 14.824219 Z M 8.160156 14.824219 "/>
</g>
</svg>
