<?xml version="1.0" encoding="UTF-8"?>
<svg xmlns="http://www.w3.org/2000/svg" xmlns:xlink="http://www.w3.org/1999/xlink" width="24px" height="24px" viewBox="0 0 24 24" version="1.1">
<g id="surface1">
<path style=" stroke:none;fill-rule:nonzero;fill:rgb(49.411765%,85.09804%,34.117648%);fill-opacity:1;" d="M 12 22.796875 C 11.859375 22.796875 11.722656 22.761719 11.597656 22.695312 C -0.472656 16.289062 0.0976562 8.367188 0.207031 7.472656 C 0.230469 4.625 2.160156 2.144531 4.914062 1.417969 C 7.667969 0.6875 10.570312 1.890625 12 4.355469 C 13.4375 1.882812 16.351562 0.679688 19.113281 1.421875 C 21.875 2.164062 23.796875 4.664062 23.800781 7.523438 C 23.925781 8.699219 24.242188 16.410156 12.402344 22.695312 C 12.28125 22.761719 12.140625 22.796875 12 22.796875 Z M 12 21.9375 Z M 6.535156 2.917969 C 3.984375 2.921875 1.921875 4.988281 1.917969 7.535156 C 1.917969 7.578125 1.914062 7.621094 1.910156 7.664062 C 1.867188 7.957031 1.03125 14.964844 12 20.964844 C 22.875 15.015625 22.128906 7.964844 22.089844 7.664062 C 22.085938 7.625 22.085938 7.589844 22.085938 7.554688 C 22.085938 7.539062 22.085938 7.523438 22.085938 7.503906 C 22.078125 4.957031 20.003906 2.894531 17.457031 2.902344 C 14.90625 2.910156 12.847656 4.984375 12.855469 7.53125 C 12.855469 8.007812 12.472656 8.390625 11.996094 8.390625 C 11.523438 8.390625 11.140625 8.007812 11.140625 7.53125 C 11.140625 4.988281 9.078125 2.925781 6.535156 2.917969 Z M 6.535156 2.917969 "/>
</g>
</svg>
