<?xml version="1.0" encoding="UTF-8"?>
<svg xmlns="http://www.w3.org/2000/svg" xmlns:xlink="http://www.w3.org/1999/xlink" width="24px" height="24px" viewBox="0 0 24 24" version="1.1">
<g id="surface1">
<path style=" stroke:none;fill-rule:evenodd;fill:rgb(49.411765%,85.09804%,34.117648%);fill-opacity:1;" d="M 3.5 9.566406 L 3.5 14.433594 C 3.5 16.726562 3.5 17.871094 4.222656 18.585938 C 4.878906 19.230469 5.894531 19.292969 7.820312 19.296875 C 7.71875 18.621094 7.695312 17.816406 7.691406 16.867188 C 7.6875 16.464844 8.015625 16.136719 8.425781 16.136719 C 8.832031 16.132812 9.167969 16.457031 9.167969 16.859375 C 9.175781 17.925781 9.203125 18.679688 9.308594 19.25 C 9.410156 19.800781 9.578125 20.121094 9.816406 20.359375 C 10.089844 20.628906 10.472656 20.804688 11.195312 20.898438 C 11.941406 21 12.925781 21 14.339844 21 L 15.328125 21 C 16.742188 21 17.726562 21 18.472656 20.898438 C 19.195312 20.804688 19.578125 20.628906 19.851562 20.359375 C 20.125 20.089844 20.300781 19.710938 20.398438 18.996094 C 20.5 18.261719 20.5 17.289062 20.5 15.890625 L 20.5 8.109375 C 20.5 6.710938 20.5 5.738281 20.398438 5.003906 C 20.300781 4.289062 20.125 3.910156 19.851562 3.640625 C 19.578125 3.371094 19.195312 3.195312 18.472656 3.101562 C 17.726562 3 16.742188 3 15.328125 3 L 14.339844 3 C 12.925781 3 11.941406 3 11.195312 3.101562 C 10.472656 3.195312 10.089844 3.371094 9.816406 3.640625 C 9.578125 3.878906 9.410156 4.199219 9.308594 4.75 C 9.203125 5.320312 9.175781 6.074219 9.167969 7.140625 C 9.167969 7.542969 8.832031 7.867188 8.425781 7.863281 C 8.015625 7.863281 7.6875 7.535156 7.691406 7.132812 C 7.695312 6.183594 7.71875 5.378906 7.820312 4.703125 C 5.894531 4.707031 4.878906 4.769531 4.222656 5.414062 C 3.5 6.128906 3.5 7.273438 3.5 9.566406 Z M 5.933594 12.515625 C 5.644531 12.230469 5.644531 11.769531 5.933594 11.484375 L 7.90625 9.539062 C 8.195312 9.253906 8.660156 9.253906 8.949219 9.539062 C 9.238281 9.824219 9.238281 10.285156 8.949219 10.570312 L 8.242188 11.269531 L 15.324219 11.269531 C 15.734375 11.269531 16.066406 11.597656 16.066406 12 C 16.066406 12.402344 15.734375 12.730469 15.324219 12.730469 L 8.242188 12.730469 L 8.949219 13.429688 C 9.238281 13.714844 9.238281 14.175781 8.949219 14.460938 C 8.660156 14.746094 8.195312 14.746094 7.90625 14.460938 Z M 5.933594 12.515625 "/>
</g>
</svg>
