<?xml version="1.0" encoding="UTF-8"?>
<svg xmlns="http://www.w3.org/2000/svg" xmlns:xlink="http://www.w3.org/1999/xlink" width="24px" height="24px" viewBox="0 0 24 24" version="1.1">
<g id="surface1">
<path style=" stroke:none;fill-rule:nonzero;fill:rgb(49.411765%,85.09804%,34.117648%);fill-opacity:1;" d="M 15.75 12 C 14.785156 12 13.855469 11.570312 13.125 10.789062 C 12.414062 10.027344 11.984375 9.011719 11.90625 7.929688 C 11.824219 6.773438 12.175781 5.714844 12.898438 4.941406 C 13.617188 4.167969 14.625 3.75 15.75 3.75 C 16.867188 3.75 17.878906 4.175781 18.59375 4.945312 C 19.320312 5.726562 19.671875 6.785156 19.59375 7.929688 C 19.511719 9.011719 19.082031 10.027344 18.375 10.789062 C 17.644531 11.570312 16.714844 12 15.75 12 Z M 18.84375 7.875 Z M 18.84375 7.875 "/>
<path style=" stroke:none;fill-rule:nonzero;fill:rgb(49.411765%,85.09804%,34.117648%);fill-opacity:1;" d="M 21.929688 20.25 L 9.570312 20.25 C 9.167969 20.253906 8.789062 20.066406 8.539062 19.75 C 8.277344 19.40625 8.1875 18.960938 8.292969 18.539062 C 8.6875 16.957031 9.664062 15.640625 11.121094 14.742188 C 12.410156 13.941406 14.054688 13.5 15.75 13.5 C 17.476562 13.5 19.078125 13.921875 20.378906 14.722656 C 21.835938 15.617188 22.816406 16.941406 23.207031 18.542969 C 23.3125 18.964844 23.222656 19.410156 22.957031 19.753906 C 22.710938 20.066406 22.332031 20.253906 21.929688 20.25 Z M 21.929688 20.25 "/>
<path style=" stroke:none;fill-rule:nonzero;fill:rgb(49.411765%,85.09804%,34.117648%);fill-opacity:1;" d="M 6.890625 12.1875 C 5.242188 12.1875 3.789062 10.652344 3.65625 8.769531 C 3.589844 7.804688 3.890625 6.910156 4.5 6.253906 C 5.101562 5.605469 5.953125 5.25 6.890625 5.25 C 7.828125 5.25 8.671875 5.609375 9.277344 6.261719 C 9.890625 6.921875 10.191406 7.8125 10.121094 8.769531 C 9.988281 10.652344 8.539062 12.1875 6.890625 12.1875 Z M 6.890625 12.1875 "/>
<path style=" stroke:none;fill-rule:nonzero;fill:rgb(49.411765%,85.09804%,34.117648%);fill-opacity:1;" d="M 9.96875 13.660156 C 9.144531 13.257812 8.074219 13.058594 6.890625 13.058594 C 5.511719 13.058594 4.167969 13.417969 3.113281 14.070312 C 1.917969 14.8125 1.113281 15.894531 0.789062 17.199219 C 0.691406 17.578125 0.777344 17.980469 1.015625 18.292969 C 1.238281 18.582031 1.585938 18.75 1.957031 18.75 L 7.160156 18.75 C 7.339844 18.75 7.496094 18.621094 7.527344 18.441406 C 7.53125 18.414062 7.539062 18.382812 7.546875 18.355469 C 7.945312 16.757812 8.875 15.410156 10.253906 14.425781 C 10.355469 14.351562 10.414062 14.230469 10.40625 14.101562 C 10.402344 13.976562 10.332031 13.863281 10.222656 13.796875 C 10.148438 13.753906 10.066406 13.707031 9.96875 13.660156 Z M 9.96875 13.660156 "/>
</g>
</svg>
