<?xml version="1.0" encoding="UTF-8"?>
<svg xmlns="http://www.w3.org/2000/svg" xmlns:xlink="http://www.w3.org/1999/xlink" width="24px" height="24px" viewBox="0 0 24 24" version="1.1">
<g id="surface1">
<path style="fill:none;stroke-width:0.00048;stroke-linecap:butt;stroke-linejoin:miter;stroke:rgb(49.411765%,85.09804%,34.117648%);stroke-opacity:1;stroke-miterlimit:4;" d="M 0 0 L 48 0 L 48 48 L 0 48 Z M 0 0 " transform="matrix(0.5,0,0,0.5,0,0)"/>
<path style="fill-rule:nonzero;fill:rgb(49.411765%,85.09804%,34.117648%);fill-opacity:1;stroke-width:0.00048;stroke-linecap:butt;stroke-linejoin:miter;stroke:rgb(49.411765%,85.09804%,34.117648%);stroke-opacity:1;stroke-miterlimit:4;" d="M 24 2 C 11.851562 2 2 11.851562 2 24 C 2 36.148438 11.851562 46 24 46 C 36.148438 46 46 36.148438 46 24 C 46.023438 18.15625 43.71875 12.546875 39.585938 8.414062 C 35.453125 4.28125 29.84375 1.976562 24 2 Z M 34.703125 14.703125 L 28 28 L 14.703125 34.703125 C 14.304688 34.835938 13.859375 34.734375 13.5625 34.4375 C 13.265625 34.140625 13.164062 33.695312 13.296875 33.296875 L 20 20 L 33.296875 13.296875 C 33.695312 13.164062 34.140625 13.265625 34.4375 13.5625 C 34.734375 13.859375 34.835938 14.304688 34.703125 14.703125 Z M 24 22 C 22.898438 22 22 22.898438 22 24 C 22 25.101562 22.898438 26 24 26 C 25.101562 26 26 25.101562 26 24 C 26 22.898438 25.101562 22 24 22 Z M 24 22 " transform="matrix(0.5,0,0,0.5,0,0)"/>
<path style="fill-rule:nonzero;fill:rgb(49.411765%,85.09804%,34.117648%);fill-opacity:1;stroke-width:0.00048;stroke-linecap:butt;stroke-linejoin:miter;stroke:rgb(49.411765%,85.09804%,34.117648%);stroke-opacity:1;stroke-miterlimit:4;" d="M 24 22 C 22.898438 22 22 22.898438 22 24 C 22 25.101562 22.898438 26 24 26 C 25.101562 26 26 25.101562 26 24 C 26 22.898438 25.101562 22 24 22 Z M 24 22 C 22.898438 22 22 22.898438 22 24 C 22 25.101562 22.898438 26 24 26 C 25.101562 26 26 25.101562 26 24 C 26 22.898438 25.101562 22 24 22 Z M 24 22 " transform="matrix(0.5,0,0,0.5,0,0)"/>
</g>
</svg>
